# xmcd
#
# Track frame offsets:
#	150
#	22589
#	47750
#	64701
#	84033
#	102061
#	119323
#	158021
#
# Disc length: 2649 seconds
#
# Revision: 0
# Processed by: cddbd v1.5.2PL0 Copyright (c) Steve Scherf et al.
# Submitted via: audiograbber 1.83.01
#
DISCID=4b0a5708
DTITLE=Svart - Gravity
DYEAR=2003
DGENRE=Death
TTITLE0=Civilisation 
TTITLE1=Just your enemy 
TTITLE2=Disarmed 
TTITLE3=Universe of mine
TTITLE4=Infection 
TTITLE5=Resistence 
TTITLE6=Black hole gravity 
TTITLE7=Daten-CD
EXTD=
EXTT0=
EXTT1=
EXTT2=
EXTT3=
EXTT4=
EXTT5=
EXTT6=
EXTT7=
PLAYORDER=
